<?xml version="1.0" encoding="UTF-8" standalone="no"?>
<!-- Created with Inkscape (http://www.inkscape.org/) -->

<svg
   xmlns:dc="http://purl.org/dc/elements/1.1/"
   xmlns:cc="http://creativecommons.org/ns#"
   xmlns:rdf="http://www.w3.org/1999/02/22-rdf-syntax-ns#"
   xmlns:svg="http://www.w3.org/2000/svg"
   xmlns="http://www.w3.org/2000/svg"
   xmlns:sodipodi="http://sodipodi.sourceforge.net/DTD/sodipodi-0.dtd"
   xmlns:inkscape="http://www.inkscape.org/namespaces/inkscape"
   id="svg2"
   version="1.1"
   inkscape:version="0.48.1 r9760"
   width="250"
   height="700"
   xml:space="preserve"
   sodipodi:docname="LED.svg"
   inkscape:export-filename="/Users/dan/Code/dnmiller.github.com/assets/images/LED.png"
   inkscape:export-xdpi="25.559999"
   inkscape:export-ydpi="25.559999"><metadata
     id="metadata8"><rdf:RDF><cc:Work
         rdf:about=""><dc:format>image/svg+xml</dc:format><dc:type
           rdf:resource="http://purl.org/dc/dcmitype/StillImage" /><dc:title></dc:title></cc:Work></rdf:RDF></metadata><defs
     id="defs6"><clipPath
       clipPathUnits="userSpaceOnUse"
       id="clipPath134"><path
         d="M 0,0 200,0 200,560 0,560 0,0 z"
         id="path136" /></clipPath><linearGradient
       x1="234.14453"
       y1="408.57812"
       x2="182.74219"
       y2="404.98047"
       gradientUnits="userSpaceOnUse"
       gradientTransform="matrix(0,-1,1,0,-302.081,659.85294)"
       spreadMethod="pad"
       id="linearGradient138"><stop
         style="stop-opacity:0.84615854;stop-color:#ffffff"
         offset="0"
         id="stop140" /><stop
         style="stop-opacity:0;stop-color:#ffffff"
         offset="1"
         id="stop142" /></linearGradient><mask
       maskUnits="userSpaceOnUse"
       x="0"
       y="0"
       width="1"
       height="1"
       id="mask144"><g
         id="g146"><g
           clip-path="url(#clipPath134)"
           id="g148"><g
             id="g150"><path
               d="M 0,0 200,0 200,560 0,560 0,0 z"
               style="fill:url(#linearGradient138);fill-opacity:1;fill-rule:nonzero;stroke:none"
               id="path152" /></g></g></g></mask><clipPath
       clipPathUnits="userSpaceOnUse"
       id="clipPath158"><path
         d="M 0,0 200,0 200,560 0,560 0,0 z"
         id="path160" /></clipPath><linearGradient
       x1="234.14453"
       y1="408.57812"
       x2="182.74219"
       y2="404.98047"
       gradientUnits="userSpaceOnUse"
       gradientTransform="matrix(0,-1,1,0,-302.081,659.85294)"
       spreadMethod="pad"
       id="linearGradient162"><stop
         style="stop-opacity:1;stop-color:#fdec64"
         offset="0"
         id="stop164" /><stop
         style="stop-opacity:1;stop-color:#fce94f"
         offset="1"
         id="stop166" /></linearGradient></defs><sodipodi:namedview
     pagecolor="#ffffff"
     bordercolor="#666666"
     borderopacity="1"
     objecttolerance="10"
     gridtolerance="10"
     guidetolerance="10"
     inkscape:pageopacity="0"
     inkscape:pageshadow="2"
     inkscape:window-width="1088"
     inkscape:window-height="814"
     id="namedview4"
     showgrid="false"
     inkscape:zoom="0.37428571"
     inkscape:cx="125"
     inkscape:cy="350"
     inkscape:window-x="0"
     inkscape:window-y="0"
     inkscape:window-maximized="0"
     inkscape:current-layer="g10" /><g
     id="g10"
     inkscape:groupmode="layer"
     inkscape:label="LED"
     transform="matrix(1.25,0,0,-1.25,0,700)"><g
       id="g12"><g
         id="g14"
         transform="matrix(1,0,0,-1,0,560)"><path
           d="m 125.469,241.785 -10.078,-5.816"
           style="fill:none;stroke:#000000;stroke-opacity:1;stroke-width:0.72;stroke-linecap:round;stroke-linejoin:round;stroke-miterlimit:10;stroke-dasharray:none"
           id="path16" /></g><g
         id="g18"
         transform="matrix(1,0,0,-1,0,560)"><path
           d="m 115.449,202.848 0,33.179"
           style="fill:none;stroke:#000000;stroke-opacity:1;stroke-width:0.72;stroke-linecap:round;stroke-linejoin:round;stroke-miterlimit:10;stroke-dasharray:none"
           id="path20" /></g><g
         id="g22"
         transform="matrix(1,0,0,-1,0,560)"><path
           d="m 135.488,236.027 -10.078,5.758"
           style="fill:none;stroke:#000000;stroke-opacity:1;stroke-width:0.72;stroke-linecap:round;stroke-linejoin:round;stroke-miterlimit:10;stroke-dasharray:none"
           id="path24" /></g><g
         id="g26"
         transform="matrix(1,0,0,-1,0,560)"><path
           d="m 105.191,196.906 10.258,5.942"
           style="fill:none;stroke:#000000;stroke-opacity:1;stroke-width:0.72;stroke-linecap:round;stroke-linejoin:round;stroke-miterlimit:10;stroke-dasharray:none"
           id="path28" /></g><g
         id="g30"
         transform="matrix(1,0,0,-1,0,560)"><path
           d="m 74.531,212.387 10.02,-5.821"
           style="fill:none;stroke:#000000;stroke-opacity:1;stroke-width:0.72;stroke-linecap:round;stroke-linejoin:round;stroke-miterlimit:10;stroke-dasharray:none"
           id="path32" /></g><g
         id="g34"
         transform="matrix(1,0,0,-1,0,560)"><path
           d="m 64.512,206.629 10.019,5.758"
           style="fill:none;stroke:#000000;stroke-opacity:1;stroke-width:0.72;stroke-linecap:round;stroke-linejoin:round;stroke-miterlimit:10;stroke-dasharray:none"
           id="path36" /></g><g
         id="g38"
         transform="matrix(1,0,0,-1,0,560)"><path
           d="m 84.551,206.629 -10.082,5.758"
           style="fill:none;stroke:#000000;stroke-opacity:1;stroke-width:0.72;stroke-linecap:round;stroke-linejoin:round;stroke-miterlimit:10;stroke-dasharray:none"
           id="path40" /></g><g
         id="g42"
         transform="matrix(1,0,0,-1,0,560)"><path
           d="m 125.469,241.785 -10.078,-5.816"
           style="fill:none;stroke:#000000;stroke-opacity:1;stroke-width:0.72;stroke-linecap:round;stroke-linejoin:round;stroke-miterlimit:10;stroke-dasharray:none"
           id="path44" /></g><g
         id="g46"
         transform="matrix(1,0,0,-1,0,560)"><path
           d="m 125.469,241.785 10.019,-5.816"
           style="fill:none;stroke:#000000;stroke-opacity:1;stroke-width:0.72;stroke-linecap:round;stroke-linejoin:round;stroke-miterlimit:10;stroke-dasharray:none"
           id="path48" /></g><g
         id="g50"
         transform="matrix(1,0,0,-1,0,560)"><path
           d="m 64.512,206.629 10.019,5.758"
           style="fill:none;stroke:#000000;stroke-opacity:1;stroke-width:0.72;stroke-linecap:round;stroke-linejoin:round;stroke-miterlimit:10;stroke-dasharray:none"
           id="path52" /></g><g
         id="g54"
         transform="matrix(1,0,0,-1,0,560)"><path
           d="m 84.551,206.629 -10.082,5.758"
           style="fill:none;stroke:#000000;stroke-opacity:1;stroke-width:0.72;stroke-linecap:round;stroke-linejoin:round;stroke-miterlimit:10;stroke-dasharray:none"
           id="path56" /></g><g
         id="g58"
         transform="matrix(1,0,0,-1,0,560)"><path
           d="m 125.469,241.785 -10.078,-5.816"
           style="fill:none;stroke:#000000;stroke-opacity:1;stroke-width:0.72;stroke-linecap:round;stroke-linejoin:round;stroke-miterlimit:10;stroke-dasharray:none"
           id="path60" /></g><g
         id="g62"
         transform="matrix(1,0,0,-1,0,560)"><path
           d="m 125.469,241.785 10.019,-5.816"
           style="fill:none;stroke:#000000;stroke-opacity:1;stroke-width:0.72;stroke-linecap:round;stroke-linejoin:round;stroke-miterlimit:10;stroke-dasharray:none"
           id="path64" /></g><g
         id="g66"
         transform="matrix(1,0,0,-1,0,560)"><path
           d="m 64.512,206.629 10.019,5.758"
           style="fill:none;stroke:#000000;stroke-opacity:1;stroke-width:0.72;stroke-linecap:round;stroke-linejoin:round;stroke-miterlimit:10;stroke-dasharray:none"
           id="path68" /></g><g
         id="g70"
         transform="matrix(1,0,0,-1,0,560)"><path
           d="m 64.562,159.258 c -4.585,1.531 -9.019,3.406 -13.191,5.668 -11.059,5.976 -22.18,16.258 -22.262,29.762 m 141.782,0 c -0.055,-12.336 -9.426,-22 -19.321,-28.083 -5.566,-3.351 -11.632,-5.96 -17.953,-7.929"
           style="fill:none;stroke:#000000;stroke-opacity:1;stroke-width:0.72;stroke-linecap:round;stroke-linejoin:round;stroke-miterlimit:10;stroke-dasharray:none"
           id="path72" /></g><g
         id="g74"
         transform="matrix(1,0,0,-1,0,560)"><path
           d="m 139.512,296.207 -4.082,-2.398"
           style="fill:none;stroke:#000000;stroke-opacity:1;stroke-width:1.44;stroke-linecap:round;stroke-linejoin:round;stroke-miterlimit:10;stroke-dasharray:none"
           id="path76" /></g><g
         id="g78"
         transform="matrix(1,0,0,-1,0,560)"><path
           d="m 115.449,267.945 0,25.922 m 0,-4.621 -4.078,2.281"
           style="fill:none;stroke:#000000;stroke-opacity:1;stroke-width:1.44;stroke-linecap:round;stroke-linejoin:round;stroke-miterlimit:10;stroke-dasharray:none"
           id="path80" /></g><g
         id="g82"
         transform="matrix(1,0,0,-1,0,560)"><path
           d="m 125.469,299.629 0,-35.223"
           style="fill:none;stroke:#000000;stroke-opacity:1;stroke-width:1.44;stroke-linecap:round;stroke-linejoin:round;stroke-miterlimit:10;stroke-dasharray:none"
           id="path84" /></g><g
         id="g86"
         transform="matrix(1,0,0,-1,0,560)"><path
           d="m 115.449,293.867 -4.078,-2.398"
           style="fill:none;stroke:#000000;stroke-opacity:1;stroke-width:1.44;stroke-linecap:round;stroke-linejoin:round;stroke-miterlimit:10;stroke-dasharray:none"
           id="path88" /></g><g
         id="g90"
         transform="matrix(1,0,0,-1,0,560)"><path
           d="m 135.488,293.867 0,-35.219"
           style="fill:none;stroke:#000000;stroke-opacity:1;stroke-width:1.44;stroke-linecap:round;stroke-linejoin:round;stroke-miterlimit:10;stroke-dasharray:none"
           id="path92" /></g><g
         id="g94"
         transform="matrix(1,0,0,-1,0,560)"><path
           d="m 74.531,293.387 4.02,2.34 m 0,0 0,-23.219 m 0,0.058 -4.082,-2.398"
           style="fill:none;stroke:#000000;stroke-opacity:1;stroke-width:1.44;stroke-linecap:round;stroke-linejoin:round;stroke-miterlimit:10;stroke-dasharray:none"
           id="path96" /></g><g
         id="g98"
         transform="matrix(1,0,0,-1,0,560)"><path
           d="m 88.57,289.906 0,-21.66"
           style="fill:none;stroke:#000000;stroke-opacity:1;stroke-width:1.44;stroke-linecap:round;stroke-linejoin:round;stroke-miterlimit:10;stroke-dasharray:none"
           id="path100" /></g><g
         id="g102"
         transform="matrix(1,0,0,-1,0,560)"><path
           d="m 79.691,267.285 -5.222,2.942 m 14.101,19.679 -10.082,5.821 M 64.512,264.469 63.25,263.746"
           style="fill:none;stroke:#000000;stroke-opacity:1;stroke-width:1.44;stroke-linecap:round;stroke-linejoin:round;stroke-miterlimit:10;stroke-dasharray:none"
           id="path104" /></g><g
         id="g106"
         transform="matrix(1,0,0,-1,0,560)"><path
           d="m 60.488,262.906 0,22.379 m 0,0 4.024,2.344"
           style="fill:none;stroke:#000000;stroke-opacity:1;stroke-width:1.44;stroke-linecap:round;stroke-linejoin:round;stroke-miterlimit:10;stroke-dasharray:none"
           id="path108" /></g><g
         id="g110"
         transform="matrix(1,0,0,-1,0,560)"><path
           d="m 135.488,293.867 -10.078,5.762"
           style="fill:none;stroke:#000000;stroke-opacity:1;stroke-width:1.44;stroke-linecap:round;stroke-linejoin:round;stroke-miterlimit:10;stroke-dasharray:none"
           id="path112" /></g><g
         id="g114"
         transform="matrix(1,0,0,-1,0,560)"><path
           d="m 111.43,291.527 0,23.161 m 0,0 4.019,2.339 m 14.039,-15.058 -4.078,-2.403"
           style="fill:none;stroke:#000000;stroke-opacity:1;stroke-width:1.44;stroke-linecap:round;stroke-linejoin:round;stroke-miterlimit:10;stroke-dasharray:none"
           id="path116" /></g><g
         id="g118"
         transform="matrix(1,0,0,-1,0,560)"><path
           d="m 73.93,537.441 0.601,-244.343 m 10.02,238.281 0,-239.422 m -20.039,-4.559 0,243.981 m 60.957,2.027 0,-210.91 m -10.02,-5.699 0,211.41 m 20.039,0 0,-206.852"
           style="fill:none;stroke:#000000;stroke-opacity:1;stroke-width:1.44;stroke-linecap:round;stroke-linejoin:round;stroke-miterlimit:10;stroke-dasharray:none"
           id="path120" /></g><g
         id="g122"
         transform="matrix(1,0,0,-1,0,560)"><path
           d="m 125.469,322.785 4.019,2.344 m 0,0 0,-23.223 m 10.024,17.403 -10.082,5.82 m 10.082,-5.82 0,-23.161 m 0,0.059 -10.082,5.762"
           style="fill:none;stroke:#000000;stroke-opacity:1;stroke-width:1.44;stroke-linecap:round;stroke-linejoin:round;stroke-miterlimit:10;stroke-dasharray:none"
           id="path124" /></g><g
         id="g126"
         transform="matrix(1,0,0,-1,0,560)"><path
           d="m 121.328,146.809 0,-0.243"
           style="fill:none;stroke:#000000;stroke-opacity:1;stroke-width:0.72;stroke-linecap:round;stroke-linejoin:round;stroke-miterlimit:10;stroke-dasharray:none"
           id="path128" /></g><g
         id="g130"><g
           id="g132" /><g
           id="g154"
           mask="url(#mask144)"><g
             id="g156" /><g
             id="g168"><g
               clip-path="url(#clipPath158)"
               id="g170"><g
                 id="g172"><path
                   d="m 98.676,415.371 c -5.965,18.879 -41.883,102.567 8.762,102.567 62.82,0 12.289,-87.657 8.226,-102.54 -2.734,-7.566 -14.703,-7.261 -16.988,-0.027 z"
                   style="fill:url(#linearGradient162);fill-opacity:1;fill-rule:nonzero;stroke:none"
                   id="path174" /></g></g></g></g></g><g
         id="g176"
         transform="matrix(1,0,0,-1,0,560)"><path
           d="m 115.629,144.406 c -0.57,6.391 -15.785,6.508 -16.981,0.422 -0.312,-6.945 16.485,-7.058 16.981,-0.422"
           style="fill:#fce94f;fill-opacity:1;fill-rule:nonzero;stroke:#000000;stroke-opacity:1;stroke-width:0.72;stroke-linecap:round;stroke-linejoin:round;stroke-miterlimit:10;stroke-dasharray:none"
           id="path178" /></g><g
         id="g180"
         transform="matrix(1,0,0,-1,0,560)"><path
           d="m 110.363,146.41 c -0.195,2.074 -5.437,2.113 -5.847,0.137 -0.11,-2.258 5.675,-2.293 5.847,-0.137"
           style="fill:#888a85;fill-opacity:1;fill-rule:nonzero;stroke:#000000;stroke-opacity:1;stroke-width:0.72;stroke-linecap:round;stroke-linejoin:round;stroke-miterlimit:10;stroke-dasharray:none"
           id="path182" /></g><g
         id="g184"
         transform="matrix(1,0,0,-1,0,560)"><path
           d="m 92.949,146.629 c 0.328,7.18 12.367,9.09 17.821,7.918"
           style="fill:none;stroke:#000000;stroke-opacity:1;stroke-width:0.72;stroke-linecap:round;stroke-linejoin:round;stroke-miterlimit:10;stroke-dasharray:none"
           id="path186" /></g><g
         id="g188"
         transform="matrix(1,0,0,-1,0,560)"><path
           d="M 103.449,136.488 94.75,131.445"
           style="fill:none;stroke:#000000;stroke-opacity:1;stroke-width:0.72;stroke-linecap:round;stroke-linejoin:round;stroke-miterlimit:10;stroke-dasharray:none"
           id="path190" /></g><g
         id="g192"
         transform="matrix(1,0,0,-1,0,560)"><path
           d="m 110.77,154.547 0,-2.281"
           style="fill:none;stroke:#000000;stroke-opacity:1;stroke-width:0.72;stroke-linecap:round;stroke-linejoin:round;stroke-miterlimit:10;stroke-dasharray:none"
           id="path194" /></g><g
         id="g196"
         transform="matrix(1,0,0,-1,0,560)"><path
           d="m 135.488,161.926 -10.078,5.82"
           style="fill:none;stroke:#000000;stroke-opacity:1;stroke-width:0.72;stroke-linecap:round;stroke-linejoin:round;stroke-miterlimit:10;stroke-dasharray:none"
           id="path198" /></g><g
         id="g200"
         transform="matrix(1,0,0,-1,0,560)"><path
           d="m 121.328,146.629 0,-2.281"
           style="fill:none;stroke:#000000;stroke-opacity:1;stroke-width:0.72;stroke-linecap:round;stroke-linejoin:round;stroke-miterlimit:10;stroke-dasharray:none"
           id="path202" /></g><g
         id="g204"
         transform="matrix(1,0,0,-1,0,560)"><path
           d="m 135.488,236.027 0,-74.16"
           style="fill:none;stroke:#000000;stroke-opacity:1;stroke-width:0.72;stroke-linecap:round;stroke-linejoin:round;stroke-miterlimit:10;stroke-dasharray:none"
           id="path206" /></g><g
         id="g208"
         transform="matrix(1,0,0,-1,0,560)"><path
           d="m 120.789,146.566 c 3.297,-8.468 -11.727,-11.453 -17.34,-10.078"
           style="fill:none;stroke:#000000;stroke-opacity:1;stroke-width:0.72;stroke-linecap:round;stroke-linejoin:round;stroke-miterlimit:10;stroke-dasharray:none"
           id="path210" /></g><g
         id="g212"
         transform="matrix(1,0,0,-1,0,560)"><path
           d="m 125.469,241.785 0,-74.097"
           style="fill:none;stroke:#000000;stroke-opacity:1;stroke-width:0.72;stroke-linecap:round;stroke-linejoin:round;stroke-miterlimit:10;stroke-dasharray:none"
           id="path214" /></g><g
         id="g216"
         transform="matrix(1,0,0,-1,0,560)"><path
           d="m 125.469,167.746 -6.059,-10.5"
           style="fill:none;stroke:#000000;stroke-opacity:1;stroke-width:0.72;stroke-linecap:round;stroke-linejoin:round;stroke-miterlimit:10;stroke-dasharray:none"
           id="path218" /></g><g
         id="g220"
         transform="matrix(1,0,0,-1,0,560)"><path
           d="m 93.43,142.309 c -3.008,8.574 11.64,11.347 17.34,10.019"
           style="fill:none;stroke:#000000;stroke-opacity:1;stroke-width:0.72;stroke-linecap:round;stroke-linejoin:round;stroke-miterlimit:10;stroke-dasharray:none"
           id="path222" /></g><g
         id="g224"
         transform="matrix(1,0,0,-1,0,560)"><path
           d="m 129.488,151.547 -8.758,-5.039"
           style="fill:none;stroke:#000000;stroke-opacity:1;stroke-width:0.72;stroke-linecap:round;stroke-linejoin:round;stroke-miterlimit:10;stroke-dasharray:none"
           id="path226" /></g><g
         id="g228"
         transform="matrix(1,0,0,-1,0,560)"><path
           d="M 135.488,161.926 129.43,151.488"
           style="fill:none;stroke:#000000;stroke-opacity:1;stroke-width:0.72;stroke-linecap:round;stroke-linejoin:round;stroke-miterlimit:10;stroke-dasharray:none"
           id="path230" /></g><g
         id="g232"
         transform="matrix(1,0,0,-1,0,560)"><path
           d="m 129.488,151.547 -10.078,5.762"
           style="fill:none;stroke:#000000;stroke-opacity:1;stroke-width:0.72;stroke-linecap:round;stroke-linejoin:round;stroke-miterlimit:10;stroke-dasharray:none"
           id="path234" /></g><g
         id="g236"
         transform="matrix(1,0,0,-1,0,560)"><path
           d="m 92.949,144.406 0,2.223"
           style="fill:none;stroke:#000000;stroke-opacity:1;stroke-width:0.72;stroke-linecap:round;stroke-linejoin:round;stroke-miterlimit:10;stroke-dasharray:none"
           id="path238" /></g><g
         id="g240"
         transform="matrix(1,0,0,-1,0,560)"><path
           d="m 119.469,157.309 -8.758,-5.043"
           style="fill:none;stroke:#000000;stroke-opacity:1;stroke-width:0.72;stroke-linecap:round;stroke-linejoin:round;stroke-miterlimit:10;stroke-dasharray:none"
           id="path242" /></g><g
         id="g244"
         transform="matrix(1,0,0,-1,0,560)"><path
           d="m 93.43,142.309 -8.7,-5.102"
           style="fill:none;stroke:#000000;stroke-opacity:1;stroke-width:0.72;stroke-linecap:round;stroke-linejoin:round;stroke-miterlimit:10;stroke-dasharray:none"
           id="path246" /></g><g
         id="g248"
         transform="matrix(1,0,0,-1,0,560)"><path
           d="m 84.789,137.266 0,6.961"
           style="fill:none;stroke:#000000;stroke-opacity:1;stroke-width:0.72;stroke-linecap:round;stroke-linejoin:round;stroke-miterlimit:10;stroke-dasharray:none"
           id="path250" /></g><g
         id="g252"
         transform="matrix(1,0,0,-1,0,560)"><path
           d="m 84.789,144.227 20.402,52.679"
           style="fill:none;stroke:#000000;stroke-opacity:1;stroke-width:0.72;stroke-linecap:round;stroke-linejoin:round;stroke-miterlimit:10;stroke-dasharray:none"
           id="path254" /></g><g
         id="g256"
         transform="matrix(1,0,0,-1,0,560)"><path
           d="M 94.809,131.508 84.73,137.266"
           style="fill:none;stroke:#000000;stroke-opacity:1;stroke-width:0.72;stroke-linecap:round;stroke-linejoin:round;stroke-miterlimit:10;stroke-dasharray:none"
           id="path258" /></g><g
         id="g260"
         transform="matrix(1,0,0,-1,0,560)"><path
           d="m 74.531,119.809 -10.082,5.82"
           style="fill:none;stroke:#000000;stroke-opacity:1;stroke-width:0.72;stroke-linecap:round;stroke-linejoin:round;stroke-miterlimit:10;stroke-dasharray:none"
           id="path262" /></g><g
         id="g264"
         transform="matrix(1,0,0,-1,0,560)"><path
           d="m 64.512,206.629 0,-81.063"
           style="fill:none;stroke:#000000;stroke-opacity:1;stroke-width:0.72;stroke-linecap:round;stroke-linejoin:round;stroke-miterlimit:10;stroke-dasharray:none"
           id="path266" /></g><g
         id="g268"
         transform="matrix(1,0,0,-1,0,560)"><path
           d="m 64.512,125.629 10.019,5.758"
           style="fill:none;stroke:#000000;stroke-opacity:1;stroke-width:0.72;stroke-linecap:round;stroke-linejoin:round;stroke-miterlimit:10;stroke-dasharray:none"
           id="path270" /></g><g
         id="g272"
         transform="matrix(1,0,0,-1,0,560)"><path
           d="m 84.551,125.629 -10.082,5.758"
           style="fill:none;stroke:#000000;stroke-opacity:1;stroke-width:0.72;stroke-linecap:round;stroke-linejoin:round;stroke-miterlimit:10;stroke-dasharray:none"
           id="path274" /></g><g
         id="g276"
         transform="matrix(1,0,0,-1,0,560)"><path
           d="m 101.469,187.309 -6.539,3.718"
           style="fill:none;stroke:#000000;stroke-opacity:1;stroke-width:0.72;stroke-linecap:round;stroke-linejoin:round;stroke-miterlimit:10;stroke-dasharray:none"
           id="path278" /></g><g
         id="g280"
         transform="matrix(1,0,0,-1,0,560)"><path
           d="m 84.551,132.527 -10.082,5.821"
           style="fill:none;stroke:#000000;stroke-opacity:1;stroke-width:0.72;stroke-linecap:round;stroke-linejoin:round;stroke-miterlimit:10;stroke-dasharray:none"
           id="path282" /></g><g
         id="g284"
         transform="matrix(1,0,0,-1,0,560)"><path
           d="M 94.988,191.027 74.469,179.148"
           style="fill:none;stroke:#000000;stroke-opacity:1;stroke-width:0.72;stroke-linecap:round;stroke-linejoin:round;stroke-miterlimit:10;stroke-dasharray:none"
           id="path286" /></g><g
         id="g288"
         transform="matrix(1,0,0,-1,0,560)"><path
           d="m 74.531,138.348 20.457,52.679"
           style="fill:none;stroke:#000000;stroke-opacity:1;stroke-width:0.72;stroke-linecap:round;stroke-linejoin:round;stroke-miterlimit:10;stroke-dasharray:none"
           id="path290" /></g><g
         id="g292"
         transform="matrix(1,0,0,-1,0,560)"><path
           d="m 74.531,131.387 0,6.961"
           style="fill:none;stroke:#000000;stroke-opacity:1;stroke-width:0.72;stroke-linecap:round;stroke-linejoin:round;stroke-miterlimit:10;stroke-dasharray:none"
           id="path294" /></g><g
         id="g296"
         transform="matrix(1,0,0,-1,0,560)"><path
           d="m 84.551,185.027 0,21.602"
           style="fill:none;stroke:#000000;stroke-opacity:1;stroke-width:0.72;stroke-linecap:round;stroke-linejoin:round;stroke-miterlimit:10;stroke-dasharray:none"
           id="path298" /></g><g
         id="g300"
         transform="matrix(1,0,0,-1,0,560)"><path
           d="m 74.531,119.809 10.02,5.82"
           style="fill:none;stroke:#000000;stroke-opacity:1;stroke-width:0.72;stroke-linecap:round;stroke-linejoin:round;stroke-miterlimit:10;stroke-dasharray:none"
           id="path302" /></g><g
         id="g304"
         transform="matrix(1,0,0,-1,0,560)"><path
           d="m 74.531,179.207 0,33.18"
           style="fill:none;stroke:#000000;stroke-opacity:1;stroke-width:0.72;stroke-linecap:round;stroke-linejoin:round;stroke-miterlimit:10;stroke-dasharray:none"
           id="path306" /></g><g
         id="g308"
         transform="matrix(1,0,0,-1,0,560)"><path
           d="m 84.551,125.629 0,6.898"
           style="fill:none;stroke:#000000;stroke-opacity:1;stroke-width:0.72;stroke-linecap:round;stroke-linejoin:round;stroke-miterlimit:10;stroke-dasharray:none"
           id="path310" /></g><g
         id="g312"
         transform="matrix(1,0,0,-1,0,560)"><path
           d="m 84.551,132.527 1.558,4.02"
           style="fill:none;stroke:#000000;stroke-opacity:1;stroke-width:0.72;stroke-linecap:round;stroke-linejoin:round;stroke-miterlimit:10;stroke-dasharray:none"
           id="path314" /></g><g
         id="g316"
         transform="matrix(1,0,0,-1,0,560)"><path
           d="m 74.531,212.387 0,54.058"
           style="fill:none;stroke:#000000;stroke-opacity:1;stroke-width:0.72;stroke-linecap:round;stroke-linejoin:round;stroke-miterlimit:10;stroke-dasharray:none"
           id="path318" /></g><g
         id="g320"
         transform="matrix(1,0,0,-1,0,560)"><path
           d="m 135.465,178.559 c 23.301,6.523 45.742,20.117 46.765,42.769 m -164.46,0 c -0.012,-14.308 11.046,-25.691 22.558,-32.64 7.242,-4.426 15.488,-7.778 24.098,-10.161"
           style="fill:none;stroke:#000000;stroke-opacity:1;stroke-width:0.72;stroke-linecap:round;stroke-linejoin:round;stroke-miterlimit:10;stroke-dasharray:none"
           id="path322" /></g><g
         id="g324"
         transform="matrix(1,0,0,-1,0,560)"><path
           d="m 74.531,266.445 0,3.782"
           style="fill:none;stroke:#000000;stroke-opacity:1;stroke-width:1.44;stroke-linecap:round;stroke-linejoin:round;stroke-miterlimit:10;stroke-dasharray:none"
           id="path326" /></g><g
         id="g328"
         transform="matrix(1,0,0,-1,0,560)"><path
           d="m 115.449,236.027 0,31.918"
           style="fill:none;stroke:#000000;stroke-opacity:1;stroke-width:0.72;stroke-linecap:round;stroke-linejoin:round;stroke-miterlimit:10;stroke-dasharray:none"
           id="path330" /></g><g
         id="g332"
         transform="matrix(1,0,0,-1,0,560)"><path
           d="m 125.469,264.469 0,-22.742"
           style="fill:none;stroke:#000000;stroke-opacity:1;stroke-width:0.72;stroke-linecap:round;stroke-linejoin:round;stroke-miterlimit:10;stroke-dasharray:none"
           id="path334" /></g><g
         id="g336"
         transform="matrix(1,0,0,-1,0,560)"><path
           d="m 135.488,258.707 0,-22.738"
           style="fill:none;stroke:#000000;stroke-opacity:1;stroke-width:0.72;stroke-linecap:round;stroke-linejoin:round;stroke-miterlimit:10;stroke-dasharray:none"
           id="path338" /></g><g
         id="g340"
         transform="matrix(1,0,0,-1,0,560)"><path
           d="m 88.57,268.309 0,-1.563 m 0,0.063 -4.082,-2.403 m 4.082,2.403 -2.34,1.32"
           style="fill:none;stroke:#000000;stroke-opacity:1;stroke-width:0.72;stroke-linecap:round;stroke-linejoin:round;stroke-miterlimit:10;stroke-dasharray:none"
           id="path342" /></g><g
         id="g344"
         transform="matrix(1,0,0,-1,0,560)"><path
           d="m 86.289,268.129 -7.801,4.437"
           style="fill:none;stroke:#000000;stroke-opacity:1;stroke-width:1.44;stroke-linecap:round;stroke-linejoin:round;stroke-miterlimit:10;stroke-dasharray:none"
           id="path346" /></g><g
         id="g348"
         transform="matrix(1,0,0,-1,0,560)"><path
           d="m 84.551,264.469 -4.922,2.816"
           style="fill:none;stroke:#000000;stroke-opacity:1;stroke-width:0.72;stroke-linecap:round;stroke-linejoin:round;stroke-miterlimit:10;stroke-dasharray:none"
           id="path350" /></g><g
         id="g352"
         transform="matrix(1,0,0,-1,0,560)"><path
           d="m 63.309,263.809 -2.879,-1.743 m 0.058,0.063 0,0.777"
           style="fill:none;stroke:#000000;stroke-opacity:1;stroke-width:0.72;stroke-linecap:round;stroke-linejoin:round;stroke-miterlimit:10;stroke-dasharray:none"
           id="path354" /></g><g
         id="g356"
         transform="matrix(1,0,0,-1,0,560)"><path
           d="m 64.512,259.848 -4.082,2.281 m 24.121,-55.5 0,57.84"
           style="fill:none;stroke:#000000;stroke-opacity:1;stroke-width:0.72;stroke-linecap:round;stroke-linejoin:round;stroke-miterlimit:10;stroke-dasharray:none"
           id="path358" /></g><g
         id="g360"
         transform="matrix(1,0,0,-1,0,560)"><path
           d="m 64.512,264.469 0,-0.422"
           style="fill:none;stroke:#000000;stroke-opacity:1;stroke-width:1.44;stroke-linecap:round;stroke-linejoin:round;stroke-miterlimit:10;stroke-dasharray:none"
           id="path362" /></g><g
         id="g364"
         transform="matrix(1,0,0,-1,0,560)"><path
           d="m 64.512,264.105 0,-57.539"
           style="fill:none;stroke:#000000;stroke-opacity:1;stroke-width:0.72;stroke-linecap:round;stroke-linejoin:round;stroke-miterlimit:10;stroke-dasharray:none"
           id="path366" /></g><g
         id="g368"
         transform="matrix(1,0,0,-1,0,560)"><path
           d="m 64.613,151.84 c -13.976,3.851 -26.445,10.113 -35.504,18.789 m 141.782,0 C 159.988,160.188 144.148,153.242 126.68,149.793"
           style="fill:none;stroke:#000000;stroke-opacity:1;stroke-width:0.72;stroke-linecap:round;stroke-linejoin:round;stroke-miterlimit:10;stroke-dasharray:none"
           id="path370" /></g><g
         id="g372"
         transform="matrix(1,0,0,-1,0,560)"><path
           d="m 74.652,124.758 c 12.93,-6.164 28.688,7.777 32.93,21.211"
           style="fill:none;stroke:#2e3436;stroke-opacity:1;stroke-width:1.6;stroke-linecap:round;stroke-linejoin:miter;stroke-miterlimit:4;stroke-dasharray:none"
           id="path374" /></g><g
         id="g376"
         transform="matrix(1,0,0,-1,0,560)"><path
           d="m 29.59,82.367 c 0.68,4.211 2.851,8.223 5.34,11.641 4.261,5.691 10.242,10.176 16.441,13.558 14.406,7.84 32.309,11.168 48.598,11.161 16.355,0.011 34.179,-3.309 48.66,-11.161 5.383,-2.921 10.656,-6.769 14.699,-11.398 3.231,-3.719 6.356,-8.938 7.082,-13.859"
           style="fill:none;stroke:#000000;stroke-opacity:1;stroke-width:0.72;stroke-linecap:round;stroke-linejoin:round;stroke-miterlimit:10;stroke-dasharray:none"
           id="path378" /></g><g
         id="g380"
         transform="matrix(1,0,0,-1,0,560)"><path
           d="m 17.797,194.656 c -0.012,10.383 5.91,20.461 16.594,28.653 23.211,17.363 58.285,21.492 86.25,17.339 l 29.461,-17.043 29.488,-16.976 c 1.82,-4.152 2.637,-8.238 2.601,-12.195"
           style="fill:none;stroke:#000000;stroke-opacity:1;stroke-width:1.44;stroke-linecap:round;stroke-linejoin:round;stroke-miterlimit:10;stroke-dasharray:none"
           id="path382" /></g><g
         id="g384"
         transform="matrix(1,0,0,-1,0,560)"><path
           d="m 179.59,206.629 0,26.578"
           style="fill:none;stroke:#000000;stroke-opacity:1;stroke-width:1.44;stroke-linecap:round;stroke-linejoin:round;stroke-miterlimit:10;stroke-dasharray:none"
           id="path386" /></g><g
         id="g388"
         transform="matrix(1,0,0,-1,0,560)"><path
           d="m 120.672,267.227 0,-26.641"
           style="fill:none;stroke:#000000;stroke-opacity:1;stroke-width:1.44;stroke-linecap:round;stroke-linejoin:round;stroke-miterlimit:10;stroke-dasharray:none"
           id="path390" /></g><g
         id="g392"
         transform="matrix(1,0,0,-1,0,560)"><path
           d="m 29.109,170.652 0,24.036 c 0.055,12.363 9.414,21.976 19.321,28.078 15.027,9.097 34.14,12.836 51.539,12.839 16.355,0.012 34.179,-3.308 48.66,-11.16 11.055,-5.984 22.187,-16.246 22.262,-29.757 l 0,-23.961"
           style="fill:none;stroke:#000000;stroke-opacity:1;stroke-width:1.44;stroke-linecap:round;stroke-linejoin:round;stroke-miterlimit:10;stroke-dasharray:none"
           id="path394" /></g><g
         id="g396"
         transform="matrix(1,0,0,-1,0,560)"><path
           d="M 84.551,531.379 73.93,537.441"
           style="fill:none;stroke:#000000;stroke-opacity:1;stroke-width:1.44;stroke-linecap:round;stroke-linejoin:round;stroke-miterlimit:10;stroke-dasharray:none"
           id="path398" /></g><g
         id="g400"
         transform="matrix(1,0,0,-1,0,560)"><path
           d="m 125.469,534.027 -10.078,-5.82"
           style="fill:none;stroke:#000000;stroke-opacity:1;stroke-width:1.44;stroke-linecap:round;stroke-linejoin:round;stroke-miterlimit:10;stroke-dasharray:none"
           id="path402" /></g><g
         id="g404"
         transform="matrix(1,0,0,-1,0,560)"><path
           d="m 125.469,534.027 10.019,-5.82"
           style="fill:none;stroke:#000000;stroke-opacity:1;stroke-width:1.44;stroke-linecap:round;stroke-linejoin:round;stroke-miterlimit:10;stroke-dasharray:none"
           id="path406" /></g><g
         id="g408"
         transform="matrix(1,0,0,-1,0,560)"><path
           d="m 64.512,531.777 9.418,5.664"
           style="fill:none;stroke:#000000;stroke-opacity:1;stroke-width:1.44;stroke-linecap:round;stroke-linejoin:round;stroke-miterlimit:10;stroke-dasharray:none"
           id="path410" /></g><path
         d="m 29.141,482.191 0,-92.832 C 21.422,381.672 17.832,373.418 17.812,365.328 l -0.011,-26.656 c 0.23,-18.074 16.793,-30.867 31.918,-37.5 21.547,-9.578 47.797,-11.906 70.953,-8.399 l 58.949,34.02 c 1.688,3.918 2.57,7.602 2.641,11.879 l -0.039,26.894 c -0.086,8.817 -4.407,16.993 -11.301,23.758 l 0,92.899 c -0.535,54.738 -58.574,88.308 -106.32,61.351 C 42.766,531.008 29.121,507.391 29.141,482.191 z"
         style="fill:#0000ff;fill-opacity:0.142222;fill-rule:nonzero;stroke:none"
         id="path412" /><g
         id="g414"
         transform="matrix(1,0,0,-1,0,560)"><path
           d="m 29.141,77.809 0,92.832 c -7.719,7.687 -11.309,15.941 -11.329,24.031 l -0.011,26.656 c 0.23,18.074 16.793,30.867 31.918,37.5 21.547,9.578 47.797,11.906 70.953,8.399 l 58.949,-34.02 c 1.688,-3.918 2.57,-7.602 2.641,-11.879 l -0.039,-26.894 c -0.086,-8.817 -4.407,-16.993 -11.301,-23.758 l 0,-92.899 C 170.387,23.039 112.348,-10.531 64.602,16.426 42.766,28.992 29.121,52.609 29.141,77.809 z"
           style="fill:none;stroke:#000000;stroke-opacity:1;stroke-width:1.44;stroke-linecap:round;stroke-linejoin:round;stroke-miterlimit:10;stroke-dasharray:none"
           id="path416" /></g></g></g></svg>